# xmcd
#
# Track frame offsets:
# 150
# 24450
# 49500
# 70651
# 86553
# 106203
# 125852
# 149852
# 169127
# 189002
# 204676
# 223801
#
# Disc length: 3373 seconds
#
#
# Revision: 0
# Processed by: cddbd v1.5.2PL0 Copyright (c) Steve Scherf et al.
# Submitted via: FreeRIP 2.943 
#
DISCID=b20d2b0c
DTITLE=Larry Amos - Versatility
DYEAR=1900
DGENRE=Blues
TTITLE0=Mother Nature
TTITLE1=If It's Love
TTITLE2=Best Girl
TTITLE3=Michelle
TTITLE4=I Love Your Way
TTITLE5=Why Did You Lie
TTITLE6=Me And You
TTITLE7=God Let The Sun
TTITLE8=Come Back
TTITLE9=I Can't Help Myself
TTITLE10=Angel
TTITLE11=I Just Wanna Play My Guitar
EXTD=
EXTT0=
EXTT1=
EXTT2=
EXTT3=
EXTT4=
EXTT5=
EXTT6=
EXTT7=
EXTT8=
EXTT9=
EXTT10=
EXTT11=
PLAYORDER=
